<?xml version="1.0" standalone="no"?>
<!DOCTYPE svg PUBLIC "-//W3C//DTD SVG 20010904//EN"
 "http://www.w3.org/TR/2001/REC-SVG-20010904/DTD/svg10.dtd">
<svg version="1.0" xmlns="http://www.w3.org/2000/svg"
 width="244.000000pt" height="206.000000pt" viewBox="0 0 244.000000 206.000000"
 preserveAspectRatio="xMidYMid meet">
<metadata>
Created by potrace 1.16, written by Peter Selinger 2001-2019
</metadata>
<g transform="translate(0.000000,206.000000) scale(0.100000,-0.100000)"
fill="#000000" stroke="none">
<path d="M997 1926 c-3 -8 -1 -31 4 -52 7 -25 7 -50 0 -77 -14 -59 8 -93 46
-69 32 20 44 134 20 182 -14 29 -61 40 -70 16z"/>
<path d="M2279 1808 c-55 -59 -149 -188 -149 -206 0 -13 9 -23 22 -28 18 -5
30 2 68 45 25 28 48 51 52 51 4 0 8 -301 8 -669 l0 -669 -51 -46 c-28 -25 -56
-46 -61 -46 -11 0 -5 472 13 951 5 147 6 274 3 283 -4 11 -15 16 -33 14 -22
-3 -27 -9 -32 -43 -10 -59 -31 -943 -27 -1129 3 -135 6 -160 20 -169 26 -17
95 20 171 92 l67 64 0 758 c0 681 -2 757 -16 763 -25 10 -32 7 -55 -16z"/>
<path d="M1306 1651 c-21 -54 -50 -114 -65 -132 l-28 -34 -22 35 c-12 19 -28
57 -36 84 -8 27 -20 55 -26 62 -18 22 -48 17 -53 -8 -35 -170 -39 -183 -66
-210 -57 -57 -153 -20 -166 63 -8 45 -25 63 -54 54 -28 -9 -27 -77 3 -130 34
-60 78 -85 150 -85 74 0 114 22 146 82 13 24 26 45 27 47 2 2 19 -10 39 -28
66 -58 121 -33 182 84 35 68 73 182 66 200 -3 8 -17 15 -32 15 -26 0 -30 -7
-65 -99z"/>
<path d="M1622 1358 c-116 -157 -132 -184 -132 -220 0 -18 16 -150 35 -293 19
-143 35 -281 35 -306 0 -91 -61 -123 -155 -80 -45 20 -115 92 -115 119 0 51
-72 717 -80 738 -18 46 -44 29 -134 -83 l-86 -106 5 -51 c3 -28 12 -160 21
-294 17 -271 16 -278 -45 -319 -58 -39 -190 -27 -229 20 -8 9 -29 142 -53 329
-22 172 -42 319 -44 326 -2 6 -15 12 -29 12 -19 0 -42 -23 -105 -101 -80 -101
-97 -141 -65 -153 23 -9 44 6 89 63 34 44 55 62 55 47 0 -27 64 -491 71 -520
13 -49 58 -92 112 -107 23 -6 78 -9 122 -7 69 2 88 7 123 31 82 54 92 104 73
358 -6 68 -13 174 -16 234 l-7 110 38 49 c33 41 39 45 46 30 4 -11 19 -140 33
-289 15 -148 31 -294 36 -323 28 -174 299 -278 385 -147 39 60 38 100 -17 498
-16 120 -26 223 -22 230 23 39 106 147 112 147 5 0 11 -26 14 -57 4 -32 25
-215 47 -408 48 -408 49 -436 23 -496 -61 -139 -232 -166 -428 -69 -44 21
-104 60 -134 86 -61 54 -78 52 -98 -9 -32 -96 -93 -132 -223 -132 -70 0 -95 5
-141 26 -61 29 -121 85 -149 140 -36 69 -65 72 -110 9 -12 -17 -42 -46 -67
-65 -56 -43 -98 -45 -169 -10 -71 35 -88 69 -81 160 12 164 102 266 259 298
68 14 91 35 68 62 -33 40 -203 -13 -289 -90 -22 -20 -55 -66 -72 -101 -28 -56
-33 -78 -37 -162 -4 -85 -2 -103 16 -137 35 -69 86 -104 181 -124 75 -16 118
-2 186 61 53 48 58 50 67 32 22 -39 107 -112 164 -140 54 -26 69 -28 169 -29
103 0 114 2 170 30 38 19 71 45 90 70 l31 41 39 -29 c138 -100 327 -142 461
-102 61 18 131 83 165 152 18 38 23 64 22 128 0 102 -103 986 -116 1003 -22
29 -48 11 -115 -80z"/>
<path d="M417 681 c-141 -114 -177 -151 -177 -180 0 -64 72 -123 132 -108 38
10 101 71 132 127 37 67 48 176 21 203 -9 9 -20 17 -25 17 -5 0 -42 -27 -83
-59z"/>
</g>
</svg>
